<?xml version="1.0" encoding="utf-8"?><!-- Uploaded to: SVG Repo, www.svgrepo.com, Generator: SVG Repo Mixer Tools -->
<svg width="800px" height="800px" viewBox="0 -0.5 25 25" fill="none" xmlns="http://www.w3.org/2000/svg">
<path d="M12.0003 5.251C7.96932 5.183 3.80032 8 1.17932 10.885C0.904199 11.1904 0.751953 11.5869 0.751953 11.998C0.751953 12.4091 0.904199 12.8056 1.17932 13.111C3.74332 15.935 7.90032 18.817 12.0003 18.748C16.1003 18.817 20.2583 15.935 22.8243 13.111C23.0994 12.8056 23.2517 12.4091 23.2517 11.998C23.2517 11.5869 23.0994 11.1904 22.8243 10.885C20.2003 8 16.0313 5.183 12.0003 5.251Z" stroke="#aaaaaa" stroke-width="1.5" stroke-linecap="round" stroke-linejoin="round"/>
<path d="M15.75 12C15.7498 12.7416 15.5297 13.4666 15.1175 14.0831C14.7054 14.6997 14.1196 15.1802 13.4344 15.4638C12.7491 15.7475 11.9952 15.8216 11.2678 15.6768C10.5404 15.532 9.87234 15.1748 9.348 14.6503C8.82365 14.1258 8.4666 13.4576 8.32198 12.7302C8.17737 12.0028 8.25169 11.2489 8.53555 10.5637C8.81941 9.87854 9.30005 9.29293 9.91672 8.88092C10.5334 8.46891 11.2584 8.249 12 8.249C12.4926 8.24887 12.9804 8.34581 13.4355 8.53428C13.8905 8.72275 14.304 8.99906 14.6523 9.34741C15.0006 9.69576 15.2768 10.1093 15.4651 10.5645C15.6535 11.0196 15.7503 11.5074 15.75 12Z" stroke="#aaaaaa" stroke-width="1.5" stroke-linecap="round" stroke-linejoin="round"/>
</svg>