<?xml version="1.0" standalone="no"?>
<!DOCTYPE svg PUBLIC "-//W3C//DTD SVG 20010904//EN"
 "http://www.w3.org/TR/2001/REC-SVG-20010904/DTD/svg10.dtd">
<svg version="1.0" xmlns="http://www.w3.org/2000/svg"
 width="512.000000pt" height="512.000000pt" viewBox="0 0 512.000000 512.000000"
 preserveAspectRatio="xMidYMid meet">

<g transform="translate(0.000000,512.000000) scale(0.100000,-0.100000)"
fill="#000000" stroke="none">
<path d="M2345 4914 c-430 -34 -825 -141 -1175 -319 -865 -441 -1312 -1253
-1128 -2050 120 -522 484 -974 1039 -1290 l106 -60 -123 -460 c-74 -277 -121
-469 -117 -483 6 -27 39 -52 68 -52 12 0 260 161 552 358 l531 358 108 -14
c160 -19 558 -19 723 2 537 66 1015 250 1400 539 115 86 300 263 384 367 418
518 519 1154 275 1728 -304 716 -1074 1231 -2028 1357 -119 16 -505 28 -615
19z"/>
</g>
</svg>
