<svg width="33" height="33" viewBox="0 0 33 33" fill="none" xmlns="http://www.w3.org/2000/svg">
<path d="M16.5 4.125C24.4736 4.125 30.9375 9.163 30.9375 15.3794C30.9375 21.5944 24.4736 26.6324 16.5 26.6324C15.706 26.6328 14.9129 26.5823 14.1254 26.4811L8.06437 30.4452C7.3755 30.8096 7.13213 30.7698 7.41538 29.8774L8.64187 24.8201C4.68187 22.8126 2.0625 19.3339 2.0625 15.3794C2.0625 9.16438 8.52638 4.125 16.5 4.125ZM24.6221 15.2075L26.6434 13.2495C26.76 13.1284 26.8251 12.9667 26.8249 12.7986C26.8247 12.6304 26.7592 12.4689 26.6423 12.3481C26.5254 12.2272 26.3661 12.1565 26.1981 12.1507C26.03 12.145 25.8663 12.2047 25.7414 12.3173L23.0904 14.883V12.7627C23.0904 12.5906 23.022 12.4255 22.9003 12.3038C22.7786 12.1821 22.6135 12.1138 22.4414 12.1138C22.2692 12.1138 22.1042 12.1821 21.9825 12.3038C21.8608 12.4255 21.7924 12.5906 21.7924 12.7627V16.2786C21.7681 16.3789 21.7681 16.4836 21.7924 16.5839V18.5625C21.7924 18.7346 21.8608 18.8997 21.9825 19.0214C22.1042 19.1431 22.2692 19.2115 22.4414 19.2115C22.6135 19.2115 22.7786 19.1431 22.9003 19.0214C23.022 18.8997 23.0904 18.7346 23.0904 18.5625V16.6884L23.6775 16.1205L25.641 18.9159C25.69 18.9857 25.7523 19.0451 25.8243 19.0908C25.8963 19.1365 25.9766 19.1676 26.0606 19.1823C26.1446 19.197 26.2307 19.195 26.314 19.1764C26.3972 19.1578 26.476 19.123 26.5457 19.074C26.6155 19.025 26.675 18.9627 26.7207 18.8907C26.7664 18.8187 26.7975 18.7384 26.8122 18.6544C26.8269 18.5704 26.8249 18.4843 26.8063 18.401C26.7877 18.3178 26.7529 18.239 26.7039 18.1692L24.6221 15.2061V15.2075ZM20.5549 17.853H18.5474V12.7834C18.5397 12.6166 18.468 12.4592 18.3473 12.3439C18.2266 12.2286 18.066 12.1642 17.8991 12.1642C17.7321 12.1642 17.5716 12.2286 17.4508 12.3439C17.3301 12.4592 17.2584 12.6166 17.2507 12.7834V18.502C17.2507 18.8595 17.5395 19.151 17.8984 19.151H20.5549C20.727 19.151 20.8921 19.0826 21.0138 18.9609C21.1355 18.8392 21.2039 18.6741 21.2039 18.502C21.2039 18.3299 21.1355 18.1648 21.0138 18.0431C20.8921 17.9214 20.727 17.853 20.5549 17.853ZM12.5015 16.3515L13.4585 14.0044L14.3357 16.3515H12.5015ZM15.9706 17.0225L15.9734 17.0005C15.973 16.837 15.9106 16.6797 15.7987 16.5605L14.3605 12.7105C14.3002 12.527 14.1854 12.3663 14.0313 12.2499C13.8773 12.1334 13.6913 12.0667 13.4984 12.0588C13.304 12.0579 13.114 12.1162 12.9536 12.226C12.7932 12.3358 12.67 12.4919 12.6005 12.6734L10.3166 18.2765C10.2844 18.3554 10.268 18.4399 10.2684 18.5251C10.2689 18.6104 10.2861 18.6947 10.3191 18.7733C10.3521 18.8519 10.4002 18.9232 10.4608 18.9831C10.5214 19.0431 10.5932 19.0906 10.6721 19.1228C10.751 19.155 10.8355 19.1714 10.9207 19.171C11.0059 19.1706 11.0902 19.1534 11.1688 19.1204C11.2474 19.0874 11.3187 19.0392 11.3787 18.9786C11.4387 18.9181 11.4861 18.8463 11.5184 18.7674L11.9721 17.6495H14.8184L15.2295 18.7495C15.2575 18.8317 15.3016 18.9075 15.3594 18.9723C15.4172 19.0372 15.4874 19.0898 15.5658 19.127C15.6443 19.1642 15.7294 19.1853 15.8162 19.189C15.903 19.1927 15.9896 19.179 16.0709 19.1486C16.1523 19.1183 16.2267 19.0719 16.2898 19.0122C16.3529 18.9525 16.4034 18.8808 16.4383 18.8013C16.4732 18.7218 16.4918 18.636 16.4929 18.5492C16.4941 18.4624 16.4778 18.3762 16.445 18.2957L15.9706 17.0225ZM11.4029 12.7902C11.4029 12.6184 11.3347 12.4535 11.2133 12.3318C11.0919 12.2102 10.9271 12.1416 10.7552 12.1412H6.29338C6.12125 12.1412 5.95617 12.2096 5.83446 12.3313C5.71275 12.453 5.64438 12.6181 5.64438 12.7902C5.64438 12.9624 5.71275 13.1275 5.83446 13.2492C5.95617 13.3709 6.12125 13.4392 6.29338 13.4392H7.88837V18.5763C7.88837 18.7484 7.95675 18.9135 8.07846 19.0352C8.20017 19.1569 8.36525 19.2253 8.53737 19.2253C8.7095 19.2253 8.87458 19.1569 8.99629 19.0352C9.118 18.9135 9.18638 18.7484 9.18638 18.5763V13.4392H10.7539C10.926 13.4392 11.0911 13.3709 11.2128 13.2492C11.3345 13.1275 11.4029 12.9624 11.4029 12.7902Z" fill="#111111"/>
</svg>
