<svg xmlns="http://www.w3.org/2000/svg" width="200px" version="1.0" preserveAspectRatio="xMidYMid meet" viewBox="14 70.07 238 34.34"><g transform="translate(0.000000,173.000000) scale(0.100000,-0.100000)" stroke="none"><path d="M1534 1015 c-4 -9 0 -23 9 -32 21 -21 49 -9 45 19 -4 28 -45 38 -54 13z"></path><path d="M187 1000 c-3 -10 0 -21 6 -23 16 -5 -19 -169 -38 -180 -8 -4 -15 -15 -15 -23 0 -14 16 -15 111 -12 107 3 112 4 135 31 28 33 31 63 8 88 -14 16 -14 19 5 38 22 22 26 47 13 68 -14 22 -62 33 -141 33 -70 0 -79 -2 -84 -20z m138 -55 c0 -23 -5 -31 -22 -33 -24 -4 -27 6 -17 46 10 34 39 24 39 -13z m-9 -89 c8 -22 -14 -56 -36 -56 -20 0 -26 23 -14 54 8 20 43 21 50 2z"></path><path d="M858 998 c-2 -13 2 -27 9 -33 9 -8 7 -30 -7 -95 -26 -114 -27 -110 20 -110 35 0 40 3 40 24 0 13 6 29 13 35 11 8 17 3 30 -24 19 -39 47 -46 85 -19 29 20 30 48 2 39 -17 -5 -23 0 -36 30 -18 44 -6 67 35 63 22 -3 26 1 26 22 0 41 -30 35 -85 -16 -51 -48 -57 -46 -41 16 25 97 28 90 -33 90 -49 0 -55 -2 -58 -22z"></path><path d="M1215 1009 c-4 -5 0 -24 8 -42 8 -18 22 -72 32 -120 l18 -88 35 3 c33 3 39 9 95 103 32 55 67 108 78 118 30 28 23 37 -32 37 -51 0 -51 0 -46 -27 4 -19 -3 -43 -21 -75 -15 -27 -30 -48 -34 -48 -10 0 -21 102 -11 109 5 3 12 14 16 24 6 15 -1 17 -63 17 -38 0 -72 -5 -75 -11z"></path><path d="M1617 998 c-4 -12 -1 -25 5 -29 15 -10 -11 -149 -27 -143 -7 3 -15 -2 -19 -11 -13 -34 -23 -4 -13 39 12 55 3 92 -24 99 -29 8 -65 -8 -79 -33 -14 -27 -6 -37 15 -20 14 12 15 7 9 -51 -5 -52 -3 -67 9 -77 24 -20 80 -11 93 15 l11 23 11 -25 c10 -21 19 -25 51 -25 42 0 61 18 61 57 -1 17 -2 17 -15 -1 -25 -33 -26 -12 -5 83 28 125 29 121 -29 121 -42 0 -49 -3 -54 -22z"></path><path d="M1757 998 c-4 -12 -1 -25 5 -29 8 -5 7 -30 -5 -89 -21 -101 -14 -120 43 -120 41 0 60 18 60 57 -1 17 -2 17 -15 -1 -25 -33 -26 -12 -5 83 28 125 29 121 -29 121 -42 0 -49 -3 -54 -22z"></path><path d="M510 954 c-40 -14 -63 -31 -76 -56 -47 -91 34 -170 131 -126 55 25 74 117 33 156 -25 22 -64 34 -88 26z m31 -56 c4 -46 -13 -98 -31 -98 -13 0 -13 51 0 84 10 27 29 35 31 14z"></path><path d="M720 954 c-40 -14 -63 -31 -76 -56 -47 -91 34 -170 131 -126 55 25 74 117 33 156 -25 22 -64 34 -88 26z m31 -56 c4 -46 -13 -98 -31 -98 -13 0 -13 51 0 84 10 27 29 35 31 14z"></path><path d="M1956 940 c-38 -19 -76 -74 -76 -109 0 -42 26 -71 64 -71 17 0 37 5 44 12 8 8 15 8 26 -1 24 -20 69 -9 85 21 18 32 7 50 -14 22 -14 -18 -14 -18 -14 6 0 14 6 50 13 81 l14 56 -56 -1 c-31 0 -70 -7 -86 -16z m51 -44 c-3 -8 -9 -31 -13 -50 -7 -40 -22 -55 -34 -36 -9 14 3 65 21 86 15 18 33 18 26 0z"></path><path d="M2195 953 c-52 -13 -86 -88 -55 -119 8 -8 6 -15 -5 -24 -20 -16 -20 -66 1 -74 9 -3 33 -6 54 -6 21 0 42 -4 45 -10 3 -5 -3 -10 -15 -10 -13 0 -20 -5 -17 -12 7 -22 89 -12 110 13 40 50 15 79 -70 79 -35 0 -63 4 -63 10 0 6 14 10 30 10 42 0 87 25 96 52 4 13 17 34 30 47 33 33 30 42 -13 40 -21 -2 -54 0 -73 3 -19 4 -44 4 -55 1z m45 -52 c0 -10 -9 -29 -20 -42 l-19 -24 -1 31 c0 29 15 54 32 54 4 0 8 -9 8 -19z"></path><path d="M2425 952 c-81 -19 -122 -116 -70 -167 42 -42 159 -27 142 18 -4 12 -15 15 -40 10 -43 -7 -58 13 -18 22 39 8 81 42 81 64 0 38 -47 65 -95 53z m29 -51 c7 -10 -22 -37 -30 -28 -9 8 3 37 15 37 5 0 12 -4 15 -9z"></path></g></svg>