<svg width="35" height="38" viewBox="0 0 40 45" fill="none" xmlns="http://www.w3.org/2000/svg">
<path d="M10.1851 4.69335C4.75963 7.36518 0.538055 9.48331 0.397336 9.62394C-0.0717284 10.0546 -0.13427 10.8895 0.256616 11.4081C0.514602 11.7596 0.850764 11.9003 1.29637 11.8387C1.55436 11.8124 4.37656 10.4589 10.7949 7.30366C15.8139 4.83397 19.9573 2.81252 20.0042 2.81252C20.0511 2.81252 24.2336 4.85155 29.3073 7.34761C36.4215 10.8456 38.6026 11.8827 38.8371 11.8827C39.8847 11.8651 40.3929 10.4501 39.6424 9.6503C39.3296 9.32511 20.3404 6.67572e-05 19.9886 6.67572e-05C19.8166 0.00885582 16.4628 1.60844 10.1851 4.69335Z" fill="#BB2649"/>
<path d="M9.75523 13.86C8.91874 13.9567 7.23792 14.361 6.35452 14.6862C5.05678 15.152 4.50172 15.4596 4.29064 15.8463C4.12646 16.1451 4.12646 16.1539 4.12646 25.1538V34.1624L4.30627 34.4613C4.50953 34.804 4.92387 35.0677 5.26004 35.0677C5.39294 35.0677 5.90109 34.8919 6.39361 34.681C8.07442 33.9691 9.62233 33.6527 11.5142 33.6439C13.4061 33.6351 15.1182 33.9867 16.541 34.6634C17.3697 35.0501 17.745 35.3314 18.6674 36.2015C19.8401 37.3264 20.1606 37.3352 21.2629 36.263C22.1776 35.3841 22.5763 35.0853 23.3894 34.6898C24.8356 33.9954 26.5555 33.6351 28.4787 33.6439C30.3706 33.6527 31.9185 33.9691 33.5993 34.681C34.0918 34.8919 34.6078 35.0677 34.7329 35.0677C35.0691 35.0677 35.4834 34.804 35.6867 34.4613L35.8665 34.1624V25.1889C35.8665 14.9762 35.9212 15.8112 35.1941 15.3629C34.4593 14.9059 32.9192 14.3786 31.4104 14.0534C30.1595 13.7897 27.6109 13.7282 26.2819 13.9215C24.0461 14.2555 22.0994 15.0377 20.5593 16.233C20.2857 16.4352 20.0356 16.611 19.9965 16.611C19.9574 16.611 19.7072 16.4352 19.4336 16.2242C17.9169 15.0465 15.9469 14.2555 13.7657 13.9303C12.9527 13.8073 10.5292 13.7633 9.75523 13.86ZM14.0784 16.6461C15.7045 16.9889 17.3384 17.7359 18.3391 18.5973L18.8238 19.0191V25.9887V32.9584L18.2609 32.6419C15.1026 30.8578 10.8341 30.4799 7.05812 31.6488C6.76104 31.7367 6.50306 31.8158 6.49524 31.8158C6.4796 31.8158 6.47179 28.5727 6.47179 24.6177V17.4195L6.9643 17.235C7.6679 16.9801 8.61384 16.7252 9.28617 16.6197C9.6067 16.567 9.95849 16.5055 10.0679 16.4879C10.5448 16.3912 13.4218 16.5143 14.0784 16.6461ZM30.9022 16.6373C31.6762 16.8043 32.3954 17.0065 33.0364 17.235L33.5211 17.4195V24.6177C33.5211 28.5727 33.5133 31.8158 33.4977 31.8158C33.4899 31.8158 33.2319 31.7367 32.9348 31.6488C29.151 30.4711 24.8825 30.8578 21.7164 32.6507L21.1691 32.9584V25.9887V19.0103L21.6616 18.5973C22.7561 17.6656 24.6167 16.857 26.2116 16.611C26.6024 16.5582 26.9699 16.4967 27.0324 16.4791C27.3451 16.3912 30.3315 16.5143 30.9022 16.6373Z" fill="#BB2649"/>
<path d="M8.40267 37.7484C6.48733 38.1 4.56416 39.0228 4.25927 39.7523C3.8762 40.6576 4.41563 41.6595 5.2834 41.6595C5.52575 41.6595 5.77591 41.5628 6.18243 41.3167C7.30037 40.6312 8.34013 40.3499 10.0288 40.2884C12.2334 40.2005 13.7187 40.5345 15.5012 41.5277C16.6269 42.1517 17.4478 42.8196 18.6517 44.0677C19.5039 44.9553 19.7227 45.0784 20.27 44.9641C20.4654 44.9202 20.7156 44.7268 21.0752 44.3489C22.6388 42.7142 23.3971 42.0989 24.7105 41.3958C26.1802 40.6136 27.6812 40.2533 29.534 40.2533C31.2226 40.2533 32.4109 40.5345 33.6383 41.2201C34.5139 41.7122 34.8813 41.7738 35.3035 41.4837C35.8273 41.1234 36.0071 40.3939 35.7335 39.7523C35.5068 39.2162 34.4279 38.5658 32.9738 38.1C31.0194 37.4672 28.1346 37.4496 26.016 38.056C24.1398 38.5922 22.2322 39.7084 20.5671 41.2288L19.9886 41.765L19.41 41.2288C17.5729 39.5238 15.2666 38.2758 13.1168 37.8363C12.1005 37.6254 9.35643 37.5726 8.40267 37.7484Z" fill="#BB2649"/>
</svg>
