<svg width="30" height="30" viewBox="0 0 34 34" fill="none" xmlns="http://www.w3.org/2000/svg">
<path d="M17 32C25.2845 32 32 25.2845 32 17C32 8.7155 25.2845 2 17 2C8.7155 2 2 8.7155 2 17C2 25.2845 8.7155 32 17 32Z" stroke="#BB2649" stroke-width="4" stroke-linecap="round" stroke-linejoin="round"/>
<path d="M17 16.25C17.9946 16.25 18.9484 15.8549 19.6517 15.1517C20.3549 14.4484 20.75 13.4946 20.75 12.5C20.75 11.5054 20.3549 10.5516 19.6517 9.84835C18.9484 9.14509 17.9946 8.75 17 8.75C16.0054 8.75 15.0516 9.14509 14.3483 9.84835C13.6451 10.5516 13.25 11.5054 13.25 12.5C13.25 13.4946 13.6451 14.4484 14.3483 15.1517C15.0516 15.8549 16.0054 16.25 17 16.25Z" stroke="#BB2649" stroke-width="4" stroke-linejoin="round"/>
<path d="M6.5166 27.749C6.7746 23.8408 10.0266 20.75 14.0001 20.75H20.0001C23.9684 20.75 27.2174 23.8325 27.4829 27.7333" stroke="#BB2649" stroke-width="4" stroke-linecap="round" stroke-linejoin="round"/>
</svg>
