<svg width="26" height="26" viewBox="0 0 26 26" fill="none" xmlns="http://www.w3.org/2000/svg">
<path d="M23.1018 24.7038L14.9955 16.7379C14.2717 17.3069 13.4394 17.7574 12.4985 18.0893C11.5575 18.4212 10.5563 18.5871 9.49478 18.5871C6.86506 18.5871 4.63969 17.6924 2.81867 15.9029C0.996686 14.1125 0.0856934 11.9252 0.0856934 9.34106C0.0856934 6.7569 0.996686 4.5696 2.81867 2.77918C4.63969 0.989708 6.86506 0.0949707 9.49478 0.0949707C12.1245 0.0949707 14.3504 0.989708 16.1723 2.77918C17.9934 4.5696 18.9039 6.7569 18.9039 9.34106C18.9039 10.3842 18.735 11.3681 18.3972 12.2927C18.0595 13.2173 17.6011 14.0352 17.0221 14.7465L25.1645 22.7479C25.4299 23.0087 25.5626 23.3287 25.5626 23.7081C25.5626 24.0874 25.4179 24.4193 25.1283 24.7038C24.863 24.9646 24.5252 25.095 24.1151 25.095C23.7049 25.095 23.3672 24.9646 23.1018 24.7038ZM9.49478 15.7422C11.3042 15.7422 12.8425 15.1201 14.1096 13.8759C15.3757 12.6308 16.0088 11.1192 16.0088 9.34106C16.0088 7.56296 15.3757 6.05135 14.1096 4.80621C12.8425 3.56202 11.3042 2.93992 9.49478 2.93992C7.68534 2.93992 6.14708 3.56202 4.87999 4.80621C3.61386 6.05135 2.9808 7.56296 2.9808 9.34106C2.9808 11.1192 3.61386 12.6308 4.87999 13.8759C6.14708 15.1201 7.68534 15.7422 9.49478 15.7422Z" fill="#BB2649"/>
</svg>
